<svg width="121" height="110" viewBox="0 0 121 110" fill="none" xmlns="http://www.w3.org/2000/svg">
<path d="M118.9 52.321C119.875 52.321 120.665 51.5997 120.665 50.7096V25.8702C120.665 12.4298 108.688 1.49534 93.9667 1.49534H88.4298C73.7078 1.49534 61.7309 12.43 61.7309 25.8702V52.5861C61.3214 52.5635 60.9091 52.5504 60.4933 52.5504C58.9182 52.5504 57.3848 52.7158 55.9126 53.0282C55.834 52.6967 55.8222 52.2881 56.0145 51.8541C57.0918 49.4212 56.2646 46.9414 56.167 46.6664C55.8669 45.8238 54.8793 45.3651 53.9549 45.634C53.0298 45.9028 52.5182 46.8078 52.8067 47.6536C52.8121 47.6697 53.3484 49.2766 52.742 50.6462C52.193 51.8863 52.2589 53.0742 52.5528 54.0339C50.6777 54.7676 48.948 55.7531 47.4143 56.9432C45.7581 55.3436 43.6667 54.1843 41.3725 53.5748C47.1677 50.6619 51.5256 45.6484 53.2049 39.6651H54.4107C57.0466 39.6651 59.191 37.7075 59.191 35.3012C59.191 33.01 59.2209 28.6087 59.2526 23.9486C59.2849 19.2134 59.3181 14.317 59.3181 11.7234C59.3181 5.25925 53.5574 0 46.4766 0C44.2442 0 42.0592 0.692454 40.3074 1.95189L39.7995 1.6294C38.1207 0.56333 36.1524 0 34.1071 0H13.2171C6.14543 0 0.390427 5.24572 0.375836 11.6984L0.249464 15.5419C0.220283 16.4313 0.986518 17.1741 1.96079 17.2009C2.92776 17.2187 3.74882 16.5278 3.77801 15.6385L3.90508 11.7719C3.90555 11.756 3.90579 11.7399 3.90579 11.7236C3.90579 7.03604 8.0829 3.22271 13.2171 3.22271H34.1071C35.4283 3.22271 36.7 3.58666 37.7842 4.27504L39.05 5.07878C39.8852 5.60988 41.0204 5.57207 41.8116 4.9864L42.4192 4.53608C43.5627 3.68936 45.0036 3.22271 46.4766 3.22271C51.6108 3.22271 55.7879 7.03604 55.7879 11.7234C55.7879 14.3069 55.7545 19.1983 55.7224 23.9289C55.6907 28.5938 55.6608 33.0001 55.6608 35.3014C55.6608 35.9309 55.0998 36.4426 54.4105 36.4426H53.8337C53.9172 35.6967 53.9603 34.94 53.9603 34.1743V21.7623C53.9603 20.6092 52.971 19.6536 51.7084 19.587C45.7866 19.274 41.1536 18.2305 37.79 14.1535C37.0626 13.2722 35.6942 13.0535 34.6745 13.6557C27.7233 17.7563 19.4449 19.5937 7.83345 19.6132C6.53513 19.6149 5.47897 20.5796 5.47897 21.7636V34.1745C5.47897 34.9402 5.5218 35.6969 5.60558 36.4429H5.02902C4.3395 36.4429 3.77871 35.9309 3.77871 35.3016V22.033C3.77871 21.1429 2.98871 20.4217 2.01373 20.4217C1.03876 20.4217 0.248758 21.1429 0.248758 22.033V35.3016C0.248758 37.7079 2.39309 39.6656 5.02902 39.6656H6.23462C7.91346 45.6469 12.269 50.6591 18.0614 53.5724C12.4591 55.0603 8.35141 59.7863 8.35141 65.3744V79.5555C8.35141 81.1941 9.8114 82.5272 11.6063 82.5272H44.6939C45.2571 83.1698 45.8654 83.7783 46.5159 84.3468C42.5303 85.7117 39.6854 89.2247 39.6854 93.3341V106.208C39.6854 108.299 41.5487 110 43.8387 110H60.8597C61.8347 110 62.6247 109.279 62.6247 108.389C62.6247 107.499 61.8347 106.777 60.8597 106.777H43.8387C43.4949 106.777 43.2154 106.522 43.2154 106.208V93.3341C43.2154 89.82 46.3471 86.961 50.1962 86.961C50.2313 86.961 50.2656 86.958 50.3002 86.9563C53.295 88.5586 56.7784 89.4786 60.4933 89.4786C64.208 89.4786 67.6913 88.5584 70.6862 86.9563C70.7207 86.9582 70.7551 86.961 70.7902 86.961C74.6392 86.961 77.7708 89.82 77.7708 93.3341V106.208C77.7708 106.522 77.4912 106.777 77.1474 106.777H67.9163C66.9413 106.777 66.1513 107.499 66.1513 108.389C66.1513 109.279 66.9413 110 67.9163 110H77.1474C79.4374 110 81.3007 108.299 81.3007 106.208V93.3341C81.3007 89.2247 78.4558 85.7115 74.4703 84.3468C74.9357 83.9398 75.3801 83.5129 75.8015 83.0674H109.309C111.103 83.0674 112.563 81.7344 112.563 80.096V75.9808H114.392C117.851 75.9808 120.665 73.4117 120.665 70.2536V57.1525C120.665 56.2623 119.875 55.5411 118.9 55.5411C117.925 55.5411 117.135 56.2623 117.135 57.1525V70.2536C117.135 71.6347 115.905 72.7581 114.392 72.7581H112.563V66.9955C112.563 61.4079 108.457 56.6828 102.855 55.195C110.348 51.4266 115.436 44.1458 115.436 35.7998V23.3896C115.436 22.2365 114.447 21.2811 113.184 21.2143C107.263 20.9014 102.631 19.8581 99.2682 15.7825C98.5415 14.9007 97.1723 14.6812 96.1522 15.2838C89.2017 19.384 80.9247 21.2211 69.3137 21.2407C68.0161 21.2433 66.9606 22.2079 66.9606 23.3911V35.8C66.9606 44.1486 72.0515 51.4315 79.5477 55.1988C77.6938 55.6915 75.9618 56.5408 74.49 57.6999C71.9541 55.4771 68.7863 53.8511 65.2608 53.0703V25.8702C65.2608 14.2068 75.6544 4.71805 88.4298 4.71805H93.9667C106.742 4.71805 117.135 14.2068 117.135 25.8702V50.7096C117.135 51.5997 117.925 52.321 118.9 52.321ZM26.823 56.1465C27.7732 56.2503 28.7395 56.3051 29.7199 56.3051C30.6972 56.3051 31.6609 56.2505 32.6083 56.1474V57.4956C32.6083 58.9516 31.3107 60.1363 29.7156 60.1363C28.1206 60.1363 26.823 58.9516 26.823 57.4956V56.1465ZM9.00893 34.1743V22.8278C20.2448 22.6909 28.5597 20.8404 35.6695 16.8894C39.7543 21.2667 45.1128 22.3708 50.4303 22.739V34.1743C50.4303 44.6002 41.1397 53.0824 29.7196 53.0824C18.2995 53.0824 9.00893 44.6004 9.00893 34.1743ZM11.8814 79.3043V65.3742C11.8814 60.3737 16.3378 56.3051 21.8154 56.3051H23.2928V57.4956C23.2928 60.7286 26.1739 63.359 29.7154 63.359C33.2569 63.359 36.138 60.7286 36.138 57.4956V56.3051H37.6239C40.4109 56.3051 43.0621 57.3836 44.9321 59.2339C42.0213 62.433 40.2685 66.5402 40.2685 71.0144C40.2685 73.9937 41.0465 76.8101 42.4251 79.3043H11.8814ZM109.034 66.9955V79.8444H78.2506C79.8226 77.2198 80.7173 74.2109 80.7173 71.0144C80.7173 66.9443 79.2663 63.1785 76.8132 60.1229C78.6125 58.7009 80.8783 57.9276 83.2947 57.9276H84.7718V59.1177C84.7718 62.3505 87.6528 64.9806 91.1938 64.9806C94.7348 64.9806 97.6157 62.3505 97.6157 59.1177V57.9276H99.1011C104.578 57.9278 109.034 61.9958 109.034 66.9955ZM88.302 57.7693C89.2521 57.8731 90.2181 57.9278 91.1982 57.9278C92.1753 57.9278 93.1388 57.8733 94.086 57.7701V59.1179C94.086 60.5737 92.7886 61.7581 91.194 61.7581C89.5994 61.7581 88.302 60.5737 88.302 59.1179V57.7693ZM70.4906 35.7998V24.4552C81.7248 24.3186 90.0381 22.4683 97.1472 18.5177C101.232 22.8946 106.589 23.9985 111.906 24.3665V35.7998C111.906 46.2244 102.616 54.7051 91.198 54.7051C79.78 54.7051 70.4906 46.2242 70.4906 35.7998ZM77.1874 71.0144C77.1874 79.4184 69.6985 86.2555 60.4933 86.2555C51.2881 86.2555 43.799 79.4184 43.799 71.0144C43.799 62.6104 51.2881 55.7733 60.4933 55.7733C69.6985 55.7733 77.1874 62.6104 77.1874 71.0144Z" fill="#25313C"/>
<path d="M21.4772 32.95C21.4772 32.0599 20.6872 31.3386 19.7122 31.3386C18.7373 31.3386 17.9473 32.0599 17.9473 32.95V34.1447C17.9473 35.0348 18.7373 35.756 19.7122 35.756C20.6872 35.756 21.4772 35.0348 21.4772 34.1447V32.95Z" fill="#4CC49C"/>
<path d="M39.7265 35.756C40.7015 35.756 41.4914 35.0348 41.4914 34.1447V32.95C41.4914 32.0599 40.7015 31.3386 39.7265 31.3386C38.7515 31.3386 37.9615 32.0599 37.9615 32.95V34.1447C37.9615 35.0346 38.7518 35.756 39.7265 35.756Z" fill="#4CC49C"/>
<path d="M37.2117 44.054C38.0641 43.6222 38.3714 42.6414 37.8984 41.8632C37.4254 41.0853 36.3511 40.8047 35.4987 41.2363C31.6104 43.2067 27.8291 43.2065 23.9407 41.2363C23.0881 40.8047 22.0138 41.0853 21.5411 41.8632C21.068 42.6414 21.3754 43.6224 22.2277 44.054C24.7133 45.3135 27.2165 45.9432 29.72 45.9432C32.2229 45.9432 34.7259 45.3135 37.2117 44.054Z" fill="#4CC49C"/>
<path d="M100.747 44.1323C101.128 43.3133 100.71 42.3671 99.8126 42.0192C98.9163 41.671 97.8794 42.053 97.4982 42.8722C96.422 45.1844 93.9489 46.6784 91.1979 46.6784C88.4469 46.6784 85.9738 45.1844 84.8977 42.8722C84.5167 42.0532 83.4803 41.671 82.5832 42.0192C81.6861 42.3671 81.2677 43.3133 81.6489 44.1323C83.28 47.6368 87.0281 49.9011 91.1979 49.9011C95.3677 49.9011 99.1161 47.6368 100.747 44.1323Z" fill="#4CC49C"/>
<path d="M82.9558 33.7499V32.5552C82.9558 31.6651 82.1658 30.9438 81.1908 30.9438C80.2159 30.9438 79.4259 31.6651 79.4259 32.5552V33.7499C79.4259 34.64 80.2159 35.3612 81.1908 35.3612C82.1658 35.3612 82.9558 34.6398 82.9558 33.7499Z" fill="#4CC49C"/>
<path d="M101.205 35.3612C102.18 35.3612 102.97 34.64 102.97 33.7499V32.5552C102.97 31.6651 102.18 30.9438 101.205 30.9438C100.23 30.9438 99.4403 31.6651 99.4403 32.5552V33.7499C99.4403 34.6398 100.23 35.3612 101.205 35.3612Z" fill="#4CC49C"/>
<path d="M53.7447 69.5191C54.7196 69.5191 55.5096 68.7979 55.5096 67.9078V66.6694C55.5096 65.7793 54.7196 65.0581 53.7447 65.0581C52.7697 65.0581 51.9797 65.7793 51.9797 66.6694V67.9078C51.9797 68.7979 52.7697 69.5191 53.7447 69.5191Z" fill="#4CC49C"/>
<path d="M67.2412 69.5191C68.2161 69.5191 69.0061 68.7979 69.0061 67.9078V66.6694C69.0061 65.7793 68.2161 65.0581 67.2412 65.0581C66.2662 65.0581 65.4762 65.7793 65.4762 66.6694V67.9078C65.4762 68.7979 66.2664 69.5191 67.2412 69.5191Z" fill="#4CC49C"/>
<path d="M66.7883 74.6311C62.5523 76.777 58.4341 76.777 54.1981 74.6311C53.3455 74.1995 52.2712 74.48 51.7985 75.258C51.3254 76.0362 51.633 77.0172 52.4851 77.4488C55.142 78.795 57.8177 79.4679 60.4932 79.4679C63.1687 79.4679 65.8444 78.7948 68.5013 77.4488C69.3534 77.017 69.661 76.0362 69.1879 75.258C68.7149 74.48 67.6409 74.1995 66.7883 74.6311Z" fill="#4CC49C"/>
</svg>
