<svg width="187" height="38" viewBox="0 0 187 38" fill="none" xmlns="http://www.w3.org/2000/svg">
<path d="M18.7001 27.7395L25.1672 31.7136C26.3515 32.442 27.8007 31.3653 27.4891 30.0036L25.7749 22.5303L31.494 17.4953C32.5381 16.577 31.9771 14.8353 30.6057 14.7245L23.079 14.0753L20.1337 7.01363C19.6039 5.73113 17.7962 5.73113 17.2664 7.01363L14.3212 14.0595L6.7944 14.7086C5.42307 14.8195 4.86207 16.5611 5.90615 17.4795L11.6252 22.5145L9.91107 29.9878C9.5994 31.3495 11.0487 32.4261 12.233 31.6978L18.7001 27.7395Z" fill="#F9B403"/>
<path d="M130.9 27.7395L137.367 31.7136C138.551 32.442 140.001 31.3653 139.689 30.0036L137.975 22.5303L143.694 17.4953C144.738 16.577 144.177 14.8353 142.806 14.7245L135.279 14.0753L132.334 7.01363C131.804 5.73113 129.996 5.73113 129.466 7.01363L126.521 14.0595L118.994 14.7086C117.623 14.8195 117.062 16.5611 118.106 17.4795L123.825 22.5145L122.111 29.9878C121.799 31.3495 123.249 32.4261 124.433 31.6978L130.9 27.7395Z" fill="#F9B403"/>
<path d="M93.5001 27.7395L99.9672 31.7136C101.152 32.442 102.601 31.3653 102.289 30.0036L100.575 22.5303L106.294 17.4953C107.338 16.577 106.777 14.8353 105.406 14.7245L97.879 14.0753L94.9338 7.01363C94.404 5.73113 92.5963 5.73113 92.0665 7.01363L89.1212 14.0595L81.5945 14.7086C80.2231 14.8195 79.6621 16.5611 80.7062 17.4795L86.4253 22.5145L84.7111 29.9878C84.3995 31.3495 85.8487 32.4261 87.033 31.6978L93.5001 27.7395Z" fill="#F9B403"/>
<path d="M56.1002 27.7395L62.5673 31.7136C63.7516 32.442 65.2009 31.3653 64.8892 30.0036L63.1751 22.5303L68.8941 17.4953C69.9382 16.577 69.3772 14.8353 68.0059 14.7245L60.4791 14.0753L57.5339 7.01363C57.0041 5.73113 55.1964 5.73113 54.6666 7.01363L51.7213 14.0595L44.1946 14.7086C42.8232 14.8195 42.2622 16.5611 43.3063 17.4795L49.0254 22.5145L47.3112 29.9878C46.9996 31.3495 48.4488 32.4261 49.6331 31.6978L56.1002 27.7395Z" fill="#F9B403"/>
<path d="M168.3 27.7395L174.767 31.7136C175.951 32.442 177.401 31.3653 177.089 30.0036L175.375 22.5303L181.094 17.4953C182.138 16.577 181.577 14.8353 180.206 14.7245L172.679 14.0753L169.734 7.01363C169.204 5.73113 167.396 5.73113 166.866 7.01363L163.921 14.0595L156.394 14.7086C155.023 14.8195 154.462 16.5611 155.506 17.4795L161.225 22.5145L159.511 29.9878C159.199 31.3495 160.649 32.4261 161.833 31.6978L168.3 27.7395Z" fill="#F9B403"/>
</svg>
