<svg width="74" height="110" viewBox="0 0 74 110" fill="none" xmlns="http://www.w3.org/2000/svg">
<path d="M71.3958 44.1087C72.2882 44.1087 73.0114 43.3875 73.0114 42.4974V15.3908C73.0114 6.90422 66.0888 0 57.5798 0C54.8697 0 52.2181 0.938008 50.1135 2.64107L49.9106 2.80564L48.9165 2.116C46.9205 0.731543 44.5811 0 42.1505 0H16.0932C7.58416 0 0.661621 6.90422 0.661621 15.3908V49.8508C0.661621 52.8077 3.07361 55.2133 6.03835 55.2133H8.60673C11.1045 62.9481 16.7138 69.303 23.9593 72.8015C16.4599 74.2163 10.7686 80.7967 10.7686 88.6815V106.535C10.7686 108.446 12.3271 110 14.2428 110H44.3245C45.217 110 45.9401 109.279 45.9401 108.389C45.9401 107.499 45.217 106.777 44.3245 106.777H14.2428C14.1088 106.777 13.9998 106.669 13.9998 106.535V88.6815C13.9998 81.5448 19.8212 75.7389 26.9768 75.7389H29.4058V77.9455C29.4058 82.0291 32.7367 85.3512 36.8311 85.3512C40.9255 85.3512 44.2564 82.0291 44.2564 77.9455V75.7389H46.696C53.8516 75.7389 59.673 81.5448 59.673 88.6815V106.535C59.673 106.669 59.564 106.777 59.43 106.777H50.7837C49.8912 106.777 49.1681 107.499 49.1681 108.389C49.1681 109.279 49.8912 110 50.7837 110H59.43C61.3456 110 62.9042 108.446 62.9042 106.535V88.6815C62.9042 80.7967 57.2131 74.2163 49.7135 72.8015C56.7924 69.3834 62.5121 63.1222 65.0661 55.2133H67.6344C70.5992 55.2133 73.0112 52.8077 73.0112 49.8508V48.9397C73.0112 48.0496 72.288 47.3284 71.3956 47.3284C70.5031 47.3284 69.78 48.0496 69.78 48.9397V49.8508C69.78 51.0308 68.8175 51.9907 67.6344 51.9907H65.9081C66.2868 50.1071 66.4869 48.1598 66.4869 46.1669V29.2538C66.4869 27.9916 65.4954 26.9457 64.2298 26.8729C56.6809 26.4372 50.7658 24.9717 46.4351 19.2375C45.7126 18.2806 44.351 18.0428 43.3347 18.6976C34.5641 24.3502 24.1404 26.883 9.5371 26.9096C8.24053 26.9118 7.18586 27.9638 7.18586 29.2555V38.1994C7.18586 39.0895 7.90901 39.8108 8.80147 39.8108C9.69392 39.8108 10.4171 39.0895 10.4171 38.1994V30.1278C24.8446 30.0031 35.3943 27.4336 44.3835 21.8507C49.5199 28.142 56.4366 29.5788 63.2557 30.041V46.1671C63.2557 50.5867 62.1575 54.7544 60.2214 58.4162C59.2441 57.516 57.8073 56.4646 55.8375 55.6581C54.0914 54.9433 53.7202 53.006 53.6569 51.8822C56.5574 50.1901 58.5114 47.0521 58.5114 43.4655C58.5114 38.0916 54.128 33.7199 48.7401 33.7199C43.3521 33.7199 38.9687 38.0918 38.9687 43.4655C38.9687 48.8391 43.3521 53.211 48.7401 53.211C49.3564 53.211 49.9584 53.1513 50.5435 53.0419C50.8375 54.9332 51.7759 57.4787 54.6103 58.6395C56.5544 59.4355 57.8107 60.5193 58.4934 61.2399C53.7127 68.052 45.788 72.5162 36.8365 72.5162C22.2689 72.5162 10.4171 60.6957 10.4171 46.1667V44.6417C10.4171 43.7516 9.69392 43.0304 8.80147 43.0304C7.90901 43.0304 7.18586 43.7516 7.18586 44.6417V46.1667C7.18586 48.1598 7.38576 50.1069 7.76468 51.9905H6.03835C4.8553 51.9905 3.89283 51.0305 3.89283 49.8506V15.3908C3.89283 8.68141 9.36585 3.22266 16.0932 3.22266H42.1505C43.9182 3.22266 45.6198 3.75482 47.0715 4.76158L48.6522 5.85814C49.4809 6.43328 50.6073 6.39139 51.3916 5.75695L52.1496 5.14379C53.6801 3.905 55.6087 3.22266 57.5798 3.22266C64.3069 3.22266 69.7802 8.68119 69.7802 15.3908V42.4974C69.7802 43.3873 70.5033 44.1087 71.3958 44.1087ZM42.1999 43.4653C42.1999 39.8686 45.1338 36.9424 48.7401 36.9424C52.3463 36.9424 55.2802 39.8686 55.2802 43.4653C55.2802 47.062 52.3463 49.9881 48.7401 49.9881C45.1338 49.9881 42.1999 47.062 42.1999 43.4653ZM41.0252 75.4424V77.9453C41.0252 80.2517 39.1438 82.1283 36.8311 82.1283C34.5184 82.1283 32.637 80.2519 32.637 77.9453V75.4409C34.0094 75.6357 35.4109 75.7389 36.8363 75.7389C38.2582 75.7389 39.6563 75.6364 41.0252 75.4424Z" fill="#14281D"/>
<path d="M26.5483 44.0331V42.897C26.5483 42.0069 25.8252 41.2856 24.9327 41.2856C24.0403 41.2856 23.3171 42.0069 23.3171 42.897V44.0331C23.3171 44.9232 24.0403 45.6444 24.9327 45.6444C25.8252 45.6444 26.5483 44.9232 26.5483 44.0331Z" fill="#4CC49C"/>
<path d="M44.3981 58.7598C45.2905 58.7598 46.0137 58.0385 46.0137 57.1484C46.0137 56.2583 45.2905 55.5371 44.3981 55.5371H29.0985C28.2061 55.5371 27.4829 56.2583 27.4829 57.1484C27.4829 58.0385 28.2061 58.7598 29.0985 58.7598H44.3981Z" fill="#4CC49C"/>
<path d="M48.7404 41.2856C47.8479 41.2856 47.1248 42.0069 47.1248 42.897V44.0331C47.1248 44.9232 47.8479 45.6444 48.7404 45.6444C49.6328 45.6444 50.356 44.9232 50.356 44.0331V42.897C50.356 42.0069 49.6326 41.2856 48.7404 41.2856Z" fill="#4CC49C"/>
</svg>
