<svg width="96" height="110" viewBox="0 0 96 110" fill="none" xmlns="http://www.w3.org/2000/svg">
<path d="M48.624 56.0338C47.0705 59.4012 43.5002 61.5772 39.5287 61.5772C35.5572 61.5772 31.9869 59.4012 30.4333 56.0338C30.0552 55.2148 29.0282 54.8319 28.139 55.1809C27.2498 55.5287 26.8353 56.4749 27.2129 57.2938C29.3165 61.8537 34.1506 64.7998 39.5284 64.7998C44.9063 64.7998 49.7404 61.8537 51.8437 57.2938C52.2216 56.4749 51.8071 55.5287 50.9177 55.1809C50.0294 54.8328 49.0019 55.2148 48.624 56.0338Z" fill="#4CC49C"/>
<path d="M26.6386 41.2854C25.6725 41.2854 24.8892 42.0066 24.8892 42.8967V44.033C24.8892 44.9231 25.6725 45.6444 26.6386 45.6444C27.6048 45.6444 28.3881 44.9231 28.3881 44.033V42.8967C28.3881 42.0066 27.6048 41.2854 26.6386 41.2854Z" fill="#4CC49C"/>
<path d="M52.4184 45.6444C53.3848 45.6444 54.1679 44.9231 54.1679 44.033V42.8967C54.1679 42.0066 53.3848 41.2854 52.4184 41.2854C51.452 41.2854 50.6689 42.0066 50.6689 42.8967V44.033C50.6689 44.9231 51.4522 45.6444 52.4184 45.6444Z" fill="#4CC49C"/>
<path d="M90.7072 72.7076C87.5611 69.81 83.2913 68.2249 78.7005 68.3989V32.6343C78.7005 26.4262 76.7987 20.3854 73.2006 15.1658C72.6828 14.4143 71.6016 14.1926 70.7859 14.6691C69.9702 15.1463 69.7288 16.1419 70.2466 16.8932C73.488 21.5959 75.2015 27.0389 75.2015 32.6346V68.8907C72.5188 69.5527 70.0586 70.8503 68.042 72.7074L62.8611 77.4793C60.3213 75.0353 57.0605 73.4136 53.4832 72.7966C64.2165 68.0058 71.6357 57.8695 71.6357 46.1667V29.2533C71.6357 27.9918 70.5624 26.9461 69.1918 26.8724C61.0174 26.437 54.6124 24.9717 49.9225 19.2371C49.1399 18.2802 47.665 18.0426 46.5651 18.6974C37.0684 24.3497 25.7808 26.8825 9.9673 26.9094C8.5633 26.9115 7.42125 27.9636 7.42125 29.2551V38.1992C7.42125 39.0893 8.20454 39.8105 9.17071 39.8105C10.1369 39.8105 10.9202 39.0893 10.9202 38.1992V30.1275C26.5434 30.0025 37.9669 27.4334 47.7007 21.8503C53.2628 28.1417 60.7533 29.5786 68.1365 30.0405V46.1669C68.1365 60.6959 55.3029 72.5164 39.5283 72.5164C23.7538 72.5164 10.9204 60.6959 10.9204 46.1669V44.642C10.9204 43.7519 10.1371 43.0306 9.17094 43.0306C8.20477 43.0306 7.42148 43.7519 7.42148 44.642V46.1669C7.42148 57.8735 14.8455 68.0129 25.5846 72.8015C17.4636 74.2163 11.3011 80.7967 11.3011 88.6815V97.1197H8.19591C5.80264 97.1197 3.85537 95.3262 3.85537 93.1219V32.6343C3.85537 16.4166 18.1807 3.22266 35.7887 3.22266H43.2685C51.9309 3.22266 60.0388 6.36603 66.099 12.0736C66.7745 12.7095 67.882 12.7215 68.5729 12.0989C69.2636 11.4767 69.276 10.4564 68.6005 9.82029C61.8767 3.48756 52.8802 0 43.2685 0H35.7887C16.2514 0 0.356445 14.6399 0.356445 32.6343V93.1219C0.356445 97.1034 3.87333 100.342 8.19591 100.342H11.3011V106.535C11.3011 108.445 12.9887 110 15.0629 110H31.3084C32.2746 110 33.0579 109.279 33.0579 108.388C33.0579 107.498 32.2746 106.777 31.3084 106.777H15.0629C14.9178 106.777 14.8 106.668 14.8 106.535V88.6813C14.8 81.5446 21.1037 75.7386 28.8522 75.7386H31.4824V77.9453C31.4824 82.0288 35.0894 85.351 39.523 85.351C43.9563 85.351 47.5633 82.0288 47.5633 77.9453V75.7389H50.205C54.1065 75.7389 57.7389 77.1904 60.3843 79.7605L54.9117 84.801C51.9878 87.494 50.2173 91.1866 50.2173 95.2387C50.2173 99.1818 51.8845 102.888 54.9115 105.677C55.3381 106.07 55.7867 106.435 56.2511 106.777H38.3032C37.3371 106.777 36.5538 107.499 36.5538 108.389C36.5538 109.279 37.3371 110 38.3032 110H66.244C70.5251 110 74.5493 108.465 77.5766 105.677L90.7072 93.5829C96.9702 87.8142 96.9714 78.4768 90.7072 72.7076ZM39.5227 82.1285C37.0187 82.1285 34.9814 80.2521 34.9814 77.9455V75.4411C36.4675 75.636 37.9851 75.7391 39.5286 75.7391C41.0681 75.7391 42.582 75.6366 44.0644 75.4426V77.9455C44.0644 80.2519 42.027 82.1285 39.5227 82.1285ZM60.528 84.1859C60.6406 86.3298 61.2019 89.0345 62.8107 91.9686C60.8417 90.819 58.8401 89.3845 56.8581 87.6002C57.3726 87.0652 57.382 87.0959 60.528 84.1859ZM75.1024 103.398C72.7362 105.577 69.5904 106.777 66.244 106.777C62.8977 106.777 59.7519 105.577 57.3857 103.398L57.3855 103.398C55.0193 101.218 53.7163 98.3209 53.7163 95.2387C53.7163 93.5148 54.1247 91.8491 54.898 90.3341C60.771 95.457 67.4929 98.3933 74.2011 99.3143C75.8565 99.5418 77.5134 99.6505 79.1878 99.6347L75.1024 103.398ZM88.2329 91.3041L83.0363 96.0904C81.4891 96.3602 75.9456 97.061 69.1335 94.8237C62.9343 88.3139 63.9112 82.2377 64.2851 80.7254L70.5162 74.9863C75.4122 70.4769 83.3365 70.4763 88.2329 74.9865C93.1286 79.495 93.1298 86.7943 88.2329 91.3041Z" fill="#14281D"/>
<path d="M86.5914 76.4981C82.2238 72.4749 75.1527 72.4737 70.7837 76.4979C66.4152 80.5211 66.4147 87.0334 70.7834 91.0579C72.9626 93.0649 75.8249 94.0685 78.6873 94.0685C81.5497 94.0685 84.4122 93.0649 86.5914 91.0579C90.9592 87.0345 90.9608 80.5221 86.5914 76.4981ZM84.1172 88.779C81.1232 91.537 76.2513 91.5365 73.2579 88.779C70.257 86.0151 70.2563 81.5411 73.2579 78.7767C76.2579 76.0132 81.116 76.0121 84.1174 78.777C87.1183 81.5405 87.1185 86.0146 84.1172 88.779Z" fill="#14281D"/>
<path d="M75.9723 80.3009L75.5949 80.6483C74.9114 81.2774 74.911 82.2977 75.5942 82.9269C76.2767 83.556 77.3847 83.5571 78.0682 82.9276L78.4456 82.5802C79.1291 81.9511 79.1295 80.9308 78.4463 80.3015C77.7633 79.6718 76.6555 79.6716 75.9723 80.3009Z" fill="#4CC49C"/>
<path d="M79.988 84.0006L79.6108 84.3482C78.9276 84.9777 78.928 85.998 79.6115 86.6269C80.2945 87.2555 81.4027 87.2561 82.0855 86.6262L82.4626 86.2786C83.1459 85.6491 83.1454 84.6288 82.4619 84C81.7783 83.3709 80.6705 83.3711 79.988 84.0006Z" fill="#4CC49C"/>
</svg>
