<svg width="96" height="110" viewBox="0 0 96 110" fill="none" xmlns="http://www.w3.org/2000/svg">
<path d="M93.6724 8.22964H91.1852C87.8109 8.22964 84.5777 9.10899 81.714 10.7904C80.8742 7.58597 79.2085 4.64713 76.8178 2.24153L75.0593 0.472078C74.4339 -0.156769 73.4198 -0.157198 72.7946 0.472078L71.0356 2.24153C68.6448 4.64734 66.9791 7.58661 66.1393 10.791C64.0331 9.55436 61.7268 8.7545 59.3112 8.41634C55.0034 5.72199 50.037 4.29693 44.9396 4.29693H30.7189L31.898 2.49891C32.3852 1.7562 32.1815 0.756745 31.4434 0.266473C30.7054 -0.22337 29.7121 -0.0188393 29.2247 0.723874L27.4693 3.40039L24.4394 0.452957C23.8035 -0.166007 22.7895 -0.148819 22.175 0.491414C21.5602 1.13122 21.5773 2.15129 22.2132 2.76961L24.0416 4.5483C17.057 5.49705 10.7269 9.11522 6.29091 14.8002C5.74472 15.5004 5.86579 16.5131 6.56166 17.0627C6.85504 17.2943 7.2033 17.4067 7.54942 17.4067C8.02409 17.4067 8.49427 17.1953 8.81007 16.7905C13.4074 10.8986 20.3083 7.51958 27.7432 7.51958H44.9392C47.6697 7.51958 50.3563 7.98536 52.897 8.88019C52.6982 9.14852 52.5793 9.48024 52.5793 9.84075V12.3432C52.5793 21.9704 59.7408 29.9454 68.9852 31.1594C69.0082 32.1681 68.989 29.4441 68.996 55.8127C68.996 57.259 67.8266 58.4357 66.3891 58.4357H64.6457C65.3525 55.8984 65.7317 53.2247 65.7317 50.4635V49.3264C65.7317 48.4363 65.0149 47.715 64.1303 47.715C63.2456 47.715 62.5288 48.4363 62.5288 49.3264V50.4635C62.5288 64.9925 50.7812 76.813 36.3414 76.813C21.9016 76.813 10.1538 64.9927 10.1538 50.4638V36.5731C24.455 36.448 34.9114 33.8791 43.8222 28.296C48.9135 34.5873 55.7704 36.0241 62.5288 36.486V42.8843C62.5288 43.7744 63.2456 44.4956 64.1303 44.4956C65.0149 44.4956 65.7317 43.7744 65.7317 42.8843V35.6991C65.7317 34.4375 64.7493 33.3919 63.4946 33.3182C56.0119 32.8827 50.1489 31.4175 45.8558 25.6829C45.139 24.7257 43.7891 24.4883 42.7826 25.1432C34.0894 30.7955 23.757 33.3283 9.28153 33.3551C7.99633 33.3573 6.95091 34.4094 6.95091 35.7008V50.464C6.95091 53.2253 7.33013 55.8989 8.0369 58.4362H6.29348C4.85603 58.4362 3.68678 57.2595 3.68678 55.8131V31.7249C3.68678 28.3338 4.37133 25.0521 5.72144 21.971C6.07824 21.1568 5.71141 20.2057 4.90215 19.8466C4.09311 19.4874 3.14763 19.8565 2.79083 20.671C1.26029 24.1644 0.484131 27.8833 0.484131 31.7249V55.8131C0.484131 59.0364 3.0904 61.6588 6.29369 61.6588H9.14039C11.8978 68.4174 17.0724 73.9296 23.5774 77.0985C16.1435 78.5133 10.5025 85.0937 10.5025 92.9785V106.535C10.5025 108.446 12.0473 110 13.946 110H43.7635C44.6479 110 45.3649 109.279 45.3649 108.389C45.3649 107.499 44.6479 106.777 43.7635 106.777H13.946C13.8131 106.777 13.7053 106.669 13.7053 106.535V92.9785C13.7053 85.8418 19.4756 80.0359 26.5684 80.0359H28.9761V82.2425C28.9761 86.326 32.2778 89.6482 36.3363 89.6482C40.3945 89.6482 43.6962 86.326 43.6962 82.2425V80.0359H46.1146C53.2072 80.0359 58.9777 85.8418 58.9777 92.9785V106.535C58.9777 106.669 58.8697 106.777 58.7369 106.777H50.1667C49.282 106.777 48.5652 107.499 48.5652 108.389C48.5652 109.279 49.282 110 50.1667 110H58.7369C60.6357 110 62.1806 108.446 62.1806 106.535V92.9785C62.1806 85.0937 56.5395 78.5133 49.1057 77.0985C55.6107 73.9296 60.785 68.4174 63.5424 61.6588H66.3891C69.5926 61.6588 72.1989 59.0364 72.1989 55.8131C72.1974 49.6708 72.2049 32.274 72.1912 31.3204H76.4141C86.8135 31.3204 95.274 22.8074 95.274 12.3437V9.84096C95.2738 8.95087 94.557 8.22964 93.6724 8.22964ZM36.3361 86.4251C34.0437 86.4251 32.1788 84.5486 32.1788 82.2421V79.7377C33.5391 79.9325 34.9283 80.0357 36.3412 80.0357C37.7505 80.0357 39.1362 79.9332 40.4932 79.7392V82.2421C40.4932 84.5486 38.6283 86.4251 36.3361 86.4251ZM73.3 4.52037L73.9267 3.89002L74.553 4.52037C77.5105 7.49595 79.1391 11.4521 79.1391 15.6602C79.1391 19.8683 77.5105 23.8245 74.553 26.8001L73.9267 27.4304L73.3 26.7998C70.3427 23.8245 68.7142 19.8683 68.7142 15.6602C68.7142 11.4521 70.3427 7.49595 73.3 4.52037ZM55.7821 12.3435V11.4523H56.6678C59.8871 11.4523 62.9482 12.4163 65.5683 14.245C65.5342 14.714 65.5113 15.1852 65.5113 15.6602C65.5113 20.2525 67.1264 24.593 70.0784 28.0343C62.0804 27.3378 55.7821 20.5687 55.7821 12.3435ZM92.0709 12.3435C92.0709 20.5687 85.7726 27.3378 77.7744 28.0343C80.7264 24.593 82.3415 20.2525 82.3415 15.6602C82.3415 15.185 82.3186 14.7134 82.2845 14.2442C84.9049 12.4159 87.967 11.4523 91.185 11.4523H92.0707V12.3435H92.0709Z" fill="#14281D"/>
<path d="M52.233 44.8218C52.233 43.9317 51.5162 43.2104 50.6316 43.2104C49.7469 43.2104 49.0301 43.9317 49.0301 44.8218C49.0301 45.9675 48.1039 46.8995 46.9651 46.8995C45.8264 46.8995 44.9001 45.9675 44.9001 44.8218C44.9001 43.9317 44.1831 43.2104 43.2987 43.2104C42.4143 43.2104 41.6973 43.9317 41.6973 44.8218C41.6973 47.7445 44.0603 50.1222 46.9651 50.1222C49.8697 50.1222 52.233 47.7443 52.233 44.8218Z" fill="#4CC49C"/>
<path d="M30.9857 44.8218C30.9857 43.9317 30.2686 43.2104 29.3842 43.2104C28.4998 43.2104 27.7828 43.9317 27.7828 44.8218C27.7828 45.9675 26.8565 46.8995 25.7178 46.8995C24.5791 46.8995 23.6528 45.9675 23.6528 44.8218C23.6528 43.9317 22.9358 43.2104 22.0514 43.2104C21.167 43.2104 20.45 43.9317 20.45 44.8218C20.45 47.7445 22.813 50.1222 25.7178 50.1222C28.6226 50.1222 30.9857 47.7443 30.9857 44.8218Z" fill="#4CC49C"/>
<path d="M36.3414 69.7415C41.2645 69.7415 45.6893 66.7953 47.6149 62.2355C47.9608 61.4165 47.5812 60.4703 46.7672 60.1225C45.9535 59.7745 45.0129 60.1562 44.667 60.9754C43.2449 64.3429 39.9769 66.5188 36.3414 66.5188C32.706 66.5188 29.4378 64.3429 28.0157 60.9754C27.6698 60.1565 26.7297 59.7736 25.9155 60.1225C25.1015 60.4703 24.7221 61.4165 25.0678 62.2355C26.9934 66.7953 31.4184 69.7415 36.3414 69.7415Z" fill="#4CC49C"/>
</svg>
